<?xml version="1.0" encoding="iso-8859-1"?>
<!-- Generator: Adobe Illustrator 19.0.0, SVG Export Plug-In . SVG Version: 6.00 Build 0)  -->
<svg version="1.1" id="Capa_1" xmlns="http://www.w3.org/2000/svg" xmlns:xlink="http://www.w3.org/1999/xlink" x="0px" y="0px"
	 viewBox="0 0 512 512" style="enable-background:new 0 0 512 512;" xml:space="preserve">
<g>
	<g>
		<path d="M465.439,361.551c-7.843,0-15.222,2.011-21.657,5.54l-98.37-83.826c4.029-10.69,6.24-22.264,6.24-34.346
			c0-20.171-6.147-38.933-16.663-54.513l45.758-45.758c6.914,3.559,14.742,5.582,23.038,5.582c27.856,0,50.519-22.663,50.519-50.519
			c0-27.856-22.663-50.52-50.519-50.52s-50.519,22.663-50.519,50.52c0,8.646,2.186,16.789,6.029,23.91l-44.735,44.735
			c-16.662-13.212-37.716-21.115-60.584-21.115c-22.061,0-42.435,7.356-58.805,19.738L96.855,73.51
			c3.544-6.902,5.559-14.714,5.559-22.992C102.413,22.663,79.749,0,51.893,0C24.037,0,1.374,22.663,1.374,50.519
			c0,27.856,22.663,50.52,50.519,50.52c8.664,0,16.825-2.195,23.958-6.053l98.405,97.557C162.952,208.48,156.3,227.938,156.3,248.92
			c0,21.966,7.291,42.261,19.576,58.595l-45.189,45.189c-6.913-3.559-14.742-5.582-23.038-5.582
			c-27.856,0-50.52,22.663-50.52,50.519s22.663,50.52,50.52,50.52s50.519-22.663,50.519-50.52c0-8.646-2.186-16.789-6.029-23.91
			l45.244-45.243c15.978,11.397,35.517,18.109,56.594,18.109c2.256,0,4.492-0.084,6.71-0.235l19.78,82.948
			c-12.061,8.123-20.01,21.902-20.01,37.504c0,24.917,20.271,45.186,45.187,45.186s45.187-20.271,45.187-45.186
			c0-23.597-18.184-43.016-41.275-45.007l-19.575-82.088c15.904-6.329,29.762-16.721,40.293-29.888l93.425,79.613
			c-2.218,5.332-3.448,11.172-3.448,17.296c0,24.917,20.271,45.186,45.187,45.186c24.917,0,45.187-20.271,45.187-45.187
			S490.354,361.551,465.439,361.551z"/>
	</g>
</g>
<g>
</g>
<g>
</g>
<g>
</g>
<g>
</g>
<g>
</g>
<g>
</g>
<g>
</g>
<g>
</g>
<g>
</g>
<g>
</g>
<g>
</g>
<g>
</g>
<g>
</g>
<g>
</g>
<g>
</g>
</svg>
