<?xml version="1.0" encoding="utf-8"?>
<!-- Svg Vector Icons : http://www.onlinewebfonts.com/icon -->
<!DOCTYPE svg PUBLIC "-//W3C//DTD SVG 1.1//EN" "http://www.w3.org/Graphics/SVG/1.1/DTD/svg11.dtd">
<svg version="1.1" xmlns="http://www.w3.org/2000/svg" xmlns:xlink="http://www.w3.org/1999/xlink" x="0px" y="0px" viewBox="0 0 1000 1000" enable-background="new 0 0 1000 1000" xml:space="preserve">
<metadata> Svg Vector Icons : http://www.onlinewebfonts.com/icon </metadata>
<g><path d="M500,55.9c244.9,0,444.1,199.2,444.1,444.1S744.9,944.1,500,944.1S55.9,744.9,55.9,500S255.1,55.9,500,55.9 M500,10C229.4,10,10,229.4,10,500c0,270.6,219.4,490,490,490c270.6,0,490-219.4,490-490C990,229.4,770.6,10,500,10L500,10z"/><path d="M287.3,664.4V335.6h243.8v55.6H353.7v72.9h165.1v55.4H353.7V609h183.7v55.4L287.3,664.4L287.3,664.4z"/><path d="M743.3,664.4h-46.2v-89.1c0-18.8-1-31.1-3-36.6c-2-5.5-5.2-9.8-9.6-12.9c-4.4-3.1-9.8-4.6-16-4.6c-8,0-15.2,2.2-21.5,6.6c-6.4,4.4-10.7,10.2-13.1,17.4c-2.3,7.2-3.5,20.6-3.5,40.1v79.1h-46.2V489.7H627v25.7c15.3-19.7,34.5-29.6,57.6-29.6c10.2,0,19.5,1.8,28,5.5c8.5,3.7,14.8,8.4,19.2,14.1c4.3,5.7,7.3,12.2,9,19.4c1.7,7.2,2.6,17.6,2.6,31.1L743.3,664.4L743.3,664.4z"/></g>
</svg>