<?xml version="1.0" encoding="utf-8"?>
<!-- Svg Vector Icons : http://www.onlinewebfonts.com/icon -->
<!DOCTYPE svg PUBLIC "-//W3C//DTD SVG 1.1//EN" "http://www.w3.org/Graphics/SVG/1.1/DTD/svg11.dtd">
<svg version="1.1" xmlns="http://www.w3.org/2000/svg" xmlns:xlink="http://www.w3.org/1999/xlink" x="0px" y="0px" viewBox="0 0 1000 1000" enable-background="new 0 0 1000 1000" xml:space="preserve">
<metadata> Svg Vector Icons : http://www.onlinewebfonts.com/icon </metadata>
<g><path d="M853.3,243.9c-18.3-45.1-43.6-86.3-75.6-123l58-58c12.1-12.1,12.1-31.7,0-43.8C823.7,7,804.1,7,792,19.1l-79.1,79.1c-12.1,12.1-12.1,31.7,0,43.8c147.5,147.5,147.5,387.5,0,535c-71.4,71.4-166.4,110.8-267.5,110.8c-90.6,0-176.4-31.7-244.7-89.8l33.6-33.6c59.2,49.2,133.1,76,211.1,76c88.4,0,171.5-34.4,234-96.9c62.5-62.5,96.9-145.6,96.9-234c0-88.4-34.4-171.5-96.9-234c-62.5-62.5-145.6-96.9-234-96.9c-88.4,0-171.5,34.4-234,96.9c-62.5,62.5-96.9,145.6-96.9,234c0,78,26.8,151.8,76,211.1L134,677c-12.1,12.1-12.1,31.7,0,43.8c42,42,91,74.6,145.7,96.7c43.2,17.5,88.3,27.9,134.7,31.2V928H247.6c-17.1,0-31,13.9-31,31c0,17.1,13.9,31,31,31h395.5c17.1,0,31-13.9,31-31c0-17.1-13.9-31-31-31H476.3v-79.3c46.3-3.2,91.5-13.6,134.7-31.2c54.6-22.2,103.6-54.7,145.7-96.7s74.6-91,96.7-145.7c21.4-52.8,32.2-108.5,32.2-165.7C885.6,352.4,874.7,296.6,853.3,243.9z M176.4,409.5c0-148.3,120.6-268.9,268.9-268.9c148.3,0,268.9,120.6,268.9,268.9c0,148.3-120.6,268.9-268.9,268.9C297,678.5,176.4,557.8,176.4,409.5z M367.3,380.3l70.6,5.9l-7.4-70.4l27.3-92.4L366,252.6l-70.6-5.9l7.4,70.4l-27.3,92.4L367.3,380.3z"/></g>
</svg>