<?xml version="1.0" ?><!DOCTYPE svg  PUBLIC '-//W3C//DTD SVG 1.1//EN'  'http://www.w3.org/Graphics/SVG/1.1/DTD/svg11.dtd'><svg enable-background="new 0 0 24 24" height="24px" id="Layer_1" version="1.1" viewBox="0 0 24 24" width="24px" xml:space="preserve" xmlns="http://www.w3.org/2000/svg" xmlns:xlink="http://www.w3.org/1999/xlink"><g><path d="M21,0H9H8L0,8v1v14c0,0.6,0.4,1,1,1h20c0.6,0,1-0.4,1-1V1C22,0.4,21.6,0,21,0z M8,2.5V8H2.5L8,2.5z M20,22H2V9h6   c0.6,0,1-0.4,1-1V2h11V22z"/><g><rect height="1" width="12" x="5" y="18"/><rect height="1" width="12" x="5" y="16"/><rect height="1" width="12" x="5" y="14"/><rect height="1" width="12" x="5" y="12"/><rect height="1" width="12" x="5" y="10"/><rect height="1" width="7" x="10" y="8"/><rect height="1" width="7" x="10" y="6"/></g></g></svg>